<svg xmlns="http://www.w3.org/2000/svg" xmlns:xlink="http://www.w3.org/1999/xlink" width="500" zoomAndPan="magnify" viewBox="0 0 375 374.999991" height="500" preserveAspectRatio="xMidYMid meet" version="1.0"><defs><g/><clipPath id="a659146f48"><path d="M 130 57.101562 L 245.3125 57.101562 L 245.3125 197 L 130 197 Z M 130 57.101562 " clip-rule="nonzero"/></clipPath><clipPath id="2e0dc7de0f"><path d="M 179 229 L 188 229 L 188 236.351562 L 179 236.351562 Z M 179 229 " clip-rule="nonzero"/></clipPath></defs><rect x="-37.5" width="450" fill="#ffffff" y="-37.499999" height="449.999989" fill-opacity="1"/><rect x="-37.5" width="450" fill="#ffffff" y="-37.499999" height="449.999989" fill-opacity="1"/><path fill="#e89b2a" d="M 194.433594 196.667969 L 187.03125 196.667969 L 187.03125 193.804688 L 191.574219 193.804688 L 191.574219 171.582031 L 212.851562 150.300781 L 212.851562 110.890625 L 185.71875 83.753906 L 185.71875 58.527344 L 188.578125 58.527344 L 188.578125 82.570312 L 215.714844 109.707031 L 215.714844 151.488281 L 194.433594 172.769531 L 194.433594 196.667969 " fill-opacity="1" fill-rule="nonzero"/><path fill="#e89b2a" d="M 185.121094 196.667969 L 176.210938 196.667969 L 176.210938 193.804688 L 182.261719 193.804688 L 182.261719 163.089844 L 168.570312 149.398438 L 168.570312 121.730469 L 182.328125 107.96875 L 200.265625 125.90625 L 200.265625 146.074219 L 197.402344 146.074219 L 197.402344 127.089844 L 182.328125 112.015625 L 171.429688 122.914062 L 171.429688 148.214844 L 185.121094 161.902344 L 185.121094 196.667969 " fill-opacity="1" fill-rule="nonzero"/><g clip-path="url(#a659146f48)"><path fill="#e89b2a" d="M 218.257812 196.667969 L 198.28125 196.667969 L 198.28125 183.121094 L 208.007812 173.394531 L 210.027344 175.417969 L 201.140625 184.308594 L 201.140625 193.804688 L 215.394531 193.804688 C 215.472656 177.152344 220.953125 161.140625 231.25 147.484375 C 238.4375 137.953125 242.234375 126.585938 242.234375 114.617188 C 242.234375 84.480469 217.71875 59.960938 187.582031 59.957031 C 157.785156 59.957031 133.269531 84.191406 132.929688 113.976562 C 132.789062 126.265625 136.632812 137.914062 144.042969 147.660156 C 154.109375 160.898438 159.683594 177.273438 159.765625 193.804688 L 167.742188 193.804688 L 167.742188 167.613281 L 157.660156 157.054688 L 157.660156 135.929688 L 146.636719 123.953125 L 146.636719 91.992188 L 149.496094 91.992188 L 149.496094 122.835938 L 160.523438 134.816406 L 160.523438 155.90625 L 170.601562 166.464844 L 170.601562 196.667969 L 156.90625 196.667969 L 156.90625 194.164062 C 156.90625 178.132812 151.53125 162.230469 141.765625 149.394531 C 133.96875 139.132812 129.921875 126.875 130.070312 113.945312 C 130.242188 98.667969 136.296875 84.367188 147.113281 73.675781 C 157.929688 62.984375 172.300781 57.097656 187.582031 57.097656 C 219.296875 57.101562 245.097656 82.902344 245.097656 114.617188 C 245.097656 127.210938 241.101562 139.175781 233.535156 149.207031 C 223.539062 162.464844 218.257812 178.011719 218.257812 194.167969 L 218.257812 196.667969 " fill-opacity="1" fill-rule="nonzero"/></g><path fill="#e89b2a" d="M 161.476562 119.085938 L 158.617188 119.085938 L 158.617188 98.941406 L 170.246094 87.308594 L 170.246094 71.546875 L 173.109375 71.546875 L 173.109375 88.492188 L 161.476562 100.125 L 161.476562 119.085938 " fill-opacity="1" fill-rule="nonzero"/><path fill="#e89b2a" d="M 233.023438 131.171875 L 230.164062 131.171875 L 230.164062 110.433594 L 209.445312 89.714844 L 209.445312 72.902344 L 212.304688 72.902344 L 212.304688 88.535156 L 233.023438 109.25 L 233.023438 131.171875 " fill-opacity="1" fill-rule="nonzero"/><path fill="#e89b2a" d="M 202.542969 146.410156 C 202.542969 148.457031 200.882812 150.117188 198.835938 150.117188 C 196.785156 150.117188 195.128906 148.457031 195.128906 146.410156 C 195.128906 144.363281 196.785156 142.703125 198.835938 142.703125 C 200.882812 142.703125 202.542969 144.363281 202.542969 146.410156 " fill-opacity="1" fill-rule="nonzero"/><path fill="#e89b2a" d="M 187.03125 163.160156 C 187.03125 165.207031 185.371094 166.867188 183.324219 166.867188 C 181.277344 166.867188 179.617188 165.207031 179.617188 163.160156 C 179.617188 161.113281 181.277344 159.453125 183.324219 159.453125 C 185.371094 159.453125 187.03125 161.113281 187.03125 163.160156 " fill-opacity="1" fill-rule="nonzero"/><path fill="#e89b2a" d="M 186.003906 111.652344 C 186.003906 113.699219 184.34375 115.359375 182.296875 115.359375 C 180.25 115.359375 178.589844 113.699219 178.589844 111.652344 C 178.589844 109.605469 180.25 107.945312 182.296875 107.945312 C 184.34375 107.945312 186.003906 109.605469 186.003906 111.652344 " fill-opacity="1" fill-rule="nonzero"/><path fill="#e89b2a" d="M 172.800781 167.761719 C 172.800781 169.808594 171.140625 171.46875 169.089844 171.46875 C 167.042969 171.46875 165.386719 169.808594 165.386719 167.761719 C 165.386719 165.714844 167.042969 164.054688 169.089844 164.054688 C 171.140625 164.054688 172.800781 165.714844 172.800781 167.761719 " fill-opacity="1" fill-rule="nonzero"/><path fill="#e89b2a" d="M 235.300781 131.765625 C 235.300781 133.8125 233.640625 135.472656 231.59375 135.472656 C 229.546875 135.472656 227.886719 133.8125 227.886719 131.765625 C 227.886719 129.714844 229.546875 128.058594 231.59375 128.058594 C 233.640625 128.058594 235.300781 129.714844 235.300781 131.765625 " fill-opacity="1" fill-rule="nonzero"/><path fill="#e89b2a" d="M 217.515625 109.992188 C 217.515625 112.039062 215.855469 113.699219 213.804688 113.699219 C 211.757812 113.699219 210.101562 112.039062 210.101562 109.992188 C 210.101562 107.945312 211.757812 106.285156 213.804688 106.285156 C 215.855469 106.285156 217.515625 107.945312 217.515625 109.992188 " fill-opacity="1" fill-rule="nonzero"/><path fill="#e89b2a" d="M 217.515625 150.277344 C 217.515625 152.324219 215.855469 153.984375 213.804688 153.984375 C 211.757812 153.984375 210.101562 152.324219 210.101562 150.277344 C 210.101562 148.230469 211.757812 146.570312 213.804688 146.570312 C 215.855469 146.570312 217.515625 148.230469 217.515625 150.277344 " fill-opacity="1" fill-rule="nonzero"/><path fill="#e89b2a" d="M 190.738281 82.78125 C 190.738281 84.828125 189.082031 86.488281 187.03125 86.488281 C 184.984375 86.488281 183.324219 84.828125 183.324219 82.78125 C 183.324219 80.734375 184.984375 79.078125 187.03125 79.078125 C 189.082031 79.078125 190.738281 80.734375 190.738281 82.78125 " fill-opacity="1" fill-rule="nonzero"/><path fill="#e89b2a" d="M 214.582031 73.96875 C 214.582031 76.015625 212.921875 77.671875 210.875 77.671875 C 208.828125 77.671875 207.167969 76.015625 207.167969 73.96875 C 207.167969 71.921875 208.828125 70.261719 210.875 70.261719 C 212.921875 70.261719 214.582031 71.921875 214.582031 73.96875 " fill-opacity="1" fill-rule="nonzero"/><path fill="#e89b2a" d="M 212.722656 174.222656 C 212.722656 176.269531 211.066406 177.929688 209.019531 177.929688 C 206.96875 177.929688 205.308594 176.269531 205.308594 174.222656 C 205.308594 172.175781 206.96875 170.515625 209.019531 170.515625 C 211.066406 170.515625 212.722656 172.175781 212.722656 174.222656 " fill-opacity="1" fill-rule="nonzero"/><path fill="#e89b2a" d="M 197.457031 171.46875 C 197.457031 173.515625 195.796875 175.175781 193.75 175.175781 C 191.703125 175.175781 190.042969 173.515625 190.042969 171.46875 C 190.042969 169.421875 191.703125 167.761719 193.75 167.761719 C 195.796875 167.761719 197.457031 169.421875 197.457031 171.46875 " fill-opacity="1" fill-rule="nonzero"/><path fill="#e89b2a" d="M 151.824219 92.054688 C 151.824219 94.101562 150.164062 95.757812 148.117188 95.757812 C 146.070312 95.757812 144.410156 94.101562 144.410156 92.054688 C 144.410156 90.003906 146.070312 88.34375 148.117188 88.34375 C 150.164062 88.34375 151.824219 90.003906 151.824219 92.054688 " fill-opacity="1" fill-rule="nonzero"/><path fill="#e89b2a" d="M 164.335938 119.085938 C 164.335938 121.132812 162.679688 122.792969 160.628906 122.792969 C 158.582031 122.792969 156.921875 121.132812 156.921875 119.085938 C 156.921875 117.039062 158.582031 115.378906 160.628906 115.378906 C 162.679688 115.378906 164.335938 117.039062 164.335938 119.085938 " fill-opacity="1" fill-rule="nonzero"/><path fill="#e89b2a" d="M 175.386719 71.546875 C 175.386719 73.59375 173.726562 75.253906 171.679688 75.253906 C 169.632812 75.253906 167.972656 73.59375 167.972656 71.546875 C 167.972656 69.5 169.632812 67.839844 171.679688 67.839844 C 173.726562 67.839844 175.386719 69.5 175.386719 71.546875 " fill-opacity="1" fill-rule="nonzero"/><path fill="#e89b2a" d="M 195.179688 234.472656 L 183.324219 234.472656 L 183.324219 231.613281 L 192.320312 231.613281 L 192.320312 225.539062 L 172.277344 225.539062 L 172.277344 213.46875 L 209.921875 213.46875 L 209.921875 205.675781 L 160.628906 205.675781 L 160.628906 202.816406 L 212.78125 202.816406 L 212.78125 216.328125 L 175.136719 216.328125 L 175.136719 222.679688 L 195.179688 222.679688 L 195.179688 234.472656 " fill-opacity="1" fill-rule="nonzero"/><path fill="#e89b2a" d="M 165.386719 204.246094 C 165.386719 206.292969 163.726562 207.949219 161.679688 207.949219 C 159.632812 207.949219 157.972656 206.292969 157.972656 204.246094 C 157.972656 202.199219 159.632812 200.539062 161.679688 200.539062 C 163.726562 200.539062 165.386719 202.199219 165.386719 204.246094 " fill-opacity="1" fill-rule="nonzero"/><g clip-path="url(#2e0dc7de0f)"><path fill="#e89b2a" d="M 187.03125 232.960938 C 187.03125 235.007812 185.371094 236.667969 183.324219 236.667969 C 181.277344 236.667969 179.617188 235.007812 179.617188 232.960938 C 179.617188 230.914062 181.277344 229.253906 183.324219 229.253906 C 185.371094 229.253906 187.03125 230.914062 187.03125 232.960938 " fill-opacity="1" fill-rule="nonzero"/></g><g fill="#393536" fill-opacity="1"><g transform="translate(90.322818, 286.764844)"><g><path d="M 6.363281 -2.851562 L 6.363281 -24.339844 L 3.304688 -24.339844 L 3.304688 0 L 17.039062 0 L 17.039062 -2.851562 Z M 6.363281 -2.851562 "/></g></g></g><g fill="#393536" fill-opacity="1"><g transform="translate(117.304568, 286.764844)"><g><path d="M 10.953125 0.417969 C 16.066406 0.417969 19.296875 -2.851562 19.296875 -7.894531 L 19.296875 -18.777344 L 16.34375 -18.777344 L 16.34375 -8.378906 C 16.34375 -4.730469 14.324219 -2.433594 10.953125 -2.433594 C 7.648438 -2.433594 5.597656 -4.695312 5.597656 -8.378906 L 5.597656 -18.777344 L 2.644531 -18.777344 L 2.644531 -7.894531 C 2.644531 -2.851562 5.910156 0.417969 10.953125 0.417969 Z M 10.953125 0.417969 "/></g></g></g><g fill="#393536" fill-opacity="1"><g transform="translate(148.45853, 286.764844)"><g><path d="M 23.714844 -19.160156 C 21.140625 -19.160156 18.742188 -17.804688 17.351562 -15.613281 C 16.308594 -17.804688 14.257812 -19.160156 11.578125 -19.160156 C 9.214844 -19.160156 7.023438 -18.046875 5.5625 -16.167969 L 5.078125 -18.777344 L 2.957031 -18.777344 L 2.957031 0 L 5.910156 0 L 5.910156 -10.398438 C 5.910156 -13.839844 8.171875 -16.480469 10.917969 -16.480469 C 13.628906 -16.480469 15.195312 -14.464844 15.195312 -11.058594 L 15.195312 0 L 18.117188 0 L 18.117188 -10.398438 C 18.117188 -13.839844 20.375 -16.480469 23.125 -16.480469 C 25.800781 -16.480469 27.367188 -14.464844 27.367188 -11.058594 L 27.367188 0 L 30.320312 0 L 30.320312 -11.996094 C 30.320312 -16.203125 27.679688 -19.160156 23.714844 -19.160156 Z M 23.714844 -19.160156 "/></g></g></g><g fill="#393536" fill-opacity="1"><g transform="translate(190.668832, 286.764844)"><g><path d="M 2.851562 -22.011719 L 6.050781 -22.011719 L 6.050781 -25.382812 L 2.851562 -25.382812 Z M 2.957031 0 L 5.910156 0 L 5.910156 -18.777344 L 2.957031 -18.777344 Z M 2.957031 0 "/></g></g></g><g fill="#393536" fill-opacity="1"><g transform="translate(208.749883, 286.764844)"><g><path d="M 12.03125 -24.339844 L 3.304688 -24.339844 L 3.304688 0 L 6.363281 0 L 6.363281 -8.726562 L 12.03125 -8.726562 C 16.65625 -8.726562 20.097656 -12.066406 20.097656 -16.515625 C 20.097656 -21.003906 16.621094 -24.339844 12.03125 -24.339844 Z M 11.890625 -11.683594 L 6.363281 -11.683594 L 6.363281 -21.386719 L 11.890625 -21.386719 C 14.847656 -21.386719 17.003906 -19.296875 17.003906 -16.515625 C 17.003906 -13.734375 14.847656 -11.683594 11.890625 -11.683594 Z M 11.890625 -11.683594 "/></g></g></g><g fill="#393536" fill-opacity="1"><g transform="translate(239.138941, 286.764844)"><g><path d="M 11.542969 -18.847656 C 8.832031 -18.847656 6.886719 -17.839844 5.527344 -15.890625 L 5.078125 -18.777344 L 2.957031 -18.777344 L 2.957031 0 L 5.910156 0 L 5.910156 -10.1875 C 5.910156 -13.839844 7.859375 -16.066406 11.300781 -16.066406 L 13.214844 -16.066406 L 13.214844 -18.847656 Z M 11.542969 -18.847656 "/></g></g></g><g fill="#393536" fill-opacity="1"><g transform="translate(261.739878, 286.764844)"><g><path d="M 11.441406 0.417969 C 17.109375 0.417969 21.386719 -3.753906 21.386719 -9.386719 C 21.386719 -14.988281 17.109375 -19.160156 11.441406 -19.160156 C 5.738281 -19.160156 1.460938 -15.023438 1.460938 -9.386719 C 1.460938 -3.753906 5.738281 0.417969 11.441406 0.417969 Z M 11.441406 -2.433594 C 7.40625 -2.433594 4.484375 -5.355469 4.484375 -9.386719 C 4.484375 -13.386719 7.40625 -16.308594 11.441406 -16.308594 C 15.4375 -16.308594 18.359375 -13.386719 18.359375 -9.355469 C 18.359375 -5.355469 15.4375 -2.433594 11.441406 -2.433594 Z M 11.441406 -2.433594 "/></g></g></g></svg>