<svg xmlns="http://www.w3.org/2000/svg" xmlns:xlink="http://www.w3.org/1999/xlink" width="100" zoomAndPan="magnify" viewBox="0 0 75 74.999997" height="100" preserveAspectRatio="xMidYMid meet" version="1.0"><defs><g/><clipPath id="95cfddfcb4"><path d="M 19.777344 7.5 L 55.027344 7.5 L 55.027344 42.75 L 19.777344 42.75 Z M 19.777344 7.5 " clip-rule="nonzero"/></clipPath></defs><rect x="-7.5" width="90" fill="#ffffff" y="-7.5" height="89.999996" fill-opacity="1"/><rect x="-7.5" width="90" fill="#ffffff" y="-7.5" height="89.999996" fill-opacity="1"/><g clip-path="url(#95cfddfcb4)"><path fill="#373737" d="M 37.496094 42.9375 C 27.726562 42.9375 19.777344 34.988281 19.777344 25.21875 C 19.777344 15.449219 27.726562 7.5 37.496094 7.5 C 47.265625 7.5 55.214844 15.449219 55.214844 25.21875 C 55.214844 34.988281 47.265625 42.9375 37.496094 42.9375 Z M 37.496094 8.277344 C 28.152344 8.277344 20.539062 15.890625 20.539062 25.238281 C 20.539062 34.582031 28.152344 42.195312 37.496094 42.195312 C 46.839844 42.195312 54.457031 34.582031 54.457031 25.238281 C 54.457031 15.890625 46.839844 8.277344 37.496094 8.277344 Z M 37.496094 8.277344 " fill-opacity="1" fill-rule="nonzero"/></g><path fill="#373737" d="M 37.496094 41.257812 C 37.035156 41.257812 36.558594 41.242188 36.101562 41.207031 C 32.125 40.871094 28.433594 39.050781 25.714844 36.101562 C 22.976562 33.132812 21.472656 29.28125 21.472656 25.238281 C 21.472656 16.402344 28.664062 9.195312 37.515625 9.195312 C 46.363281 9.195312 53.554688 16.386719 53.554688 25.238281 C 53.554688 29.265625 52.054688 33.132812 49.296875 36.101562 C 46.578125 39.050781 42.882812 40.871094 38.910156 41.207031 C 38.433594 41.242188 37.957031 41.257812 37.496094 41.257812 Z M 37.496094 9.957031 C 29.070312 9.957031 22.214844 16.808594 22.214844 25.238281 C 22.214844 33.097656 28.34375 39.773438 36.171875 40.445312 C 37.054688 40.515625 37.9375 40.515625 38.820312 40.445312 C 46.648438 39.773438 52.777344 33.078125 52.777344 25.238281 C 52.777344 16.808594 45.921875 9.957031 37.496094 9.957031 Z M 37.496094 9.957031 " fill-opacity="1" fill-rule="nonzero"/><path fill="#373737" d="M 37.496094 41.257812 C 37.035156 41.257812 36.558594 41.242188 36.101562 41.207031 C 35.90625 41.1875 35.746094 41.03125 35.746094 40.835938 L 35.746094 36.347656 C 35.746094 36.3125 35.746094 36.261719 35.765625 36.222656 L 36.117188 35.164062 L 36.117188 34.140625 C 34.933594 33.609375 34.140625 32.410156 34.140625 31.082031 C 34.140625 29.757812 34.917969 28.574219 36.117188 28.027344 L 36.117188 26.542969 L 25.941406 26.542969 C 25.820312 26.542969 25.695312 26.472656 25.625 26.367188 C 25.554688 26.261719 25.535156 26.121094 25.589844 26.015625 L 30.871094 13.542969 C 30.925781 13.398438 31.066406 13.3125 31.226562 13.3125 L 43.75 13.3125 C 43.910156 13.3125 44.03125 13.398438 44.101562 13.542969 L 49.386719 26.015625 C 49.4375 26.136719 49.421875 26.261719 49.351562 26.367188 C 49.28125 26.472656 49.15625 26.542969 49.03125 26.542969 L 38.855469 26.542969 L 38.855469 28.027344 C 40.039062 28.558594 40.835938 29.757812 40.835938 31.082031 C 40.835938 32.410156 40.058594 33.59375 38.855469 34.140625 L 38.855469 35.164062 L 39.210938 36.222656 C 39.226562 36.261719 39.226562 36.296875 39.226562 36.347656 L 39.226562 40.816406 C 39.226562 41.011719 39.085938 41.171875 38.875 41.1875 C 38.433594 41.242188 37.957031 41.257812 37.496094 41.257812 Z M 36.523438 40.464844 C 37.179688 40.5 37.832031 40.5 38.484375 40.464844 L 38.484375 36.402344 L 38.132812 35.339844 C 38.113281 35.304688 38.113281 35.269531 38.113281 35.21875 L 38.113281 33.875 C 38.113281 33.714844 38.21875 33.574219 38.363281 33.523438 C 39.386719 33.152344 40.09375 32.179688 40.09375 31.082031 C 40.09375 29.988281 39.402344 29.015625 38.363281 28.644531 C 38.203125 28.59375 38.113281 28.453125 38.113281 28.292969 L 38.113281 26.171875 C 38.113281 25.960938 38.292969 25.800781 38.484375 25.800781 L 48.464844 25.800781 L 43.519531 14.089844 L 31.488281 14.089844 L 26.542969 25.800781 L 36.523438 25.800781 C 36.738281 25.800781 36.894531 25.976562 36.894531 26.171875 L 36.894531 28.292969 C 36.894531 28.453125 36.789062 28.59375 36.648438 28.644531 C 35.625 29.015625 34.917969 29.988281 34.917969 31.082031 C 34.917969 32.179688 35.605469 33.152344 36.648438 33.523438 C 36.808594 33.574219 36.894531 33.714844 36.894531 33.875 L 36.894531 35.21875 C 36.894531 35.253906 36.894531 35.304688 36.878906 35.339844 L 36.523438 36.402344 Z M 36.523438 40.464844 " fill-opacity="1" fill-rule="nonzero"/><path fill="#373737" d="M 29.351562 33.433594 C 28.503906 33.433594 27.796875 32.746094 27.796875 31.878906 C 27.796875 31.03125 28.488281 30.324219 29.351562 30.324219 C 30.199219 30.324219 30.90625 31.011719 30.90625 31.878906 C 30.90625 32.746094 30.199219 33.433594 29.351562 33.433594 Z M 29.351562 31.101562 C 28.910156 31.101562 28.558594 31.453125 28.558594 31.894531 C 28.558594 32.339844 28.910156 32.691406 29.351562 32.691406 C 29.792969 32.691406 30.148438 32.339844 30.148438 31.894531 C 30.148438 31.453125 29.777344 31.101562 29.351562 31.101562 Z M 29.351562 31.101562 " fill-opacity="1" fill-rule="nonzero"/><path fill="#373737" d="M 29.351562 31.101562 C 29.140625 31.101562 28.980469 30.925781 28.980469 30.730469 L 28.980469 26.15625 C 28.980469 25.941406 29.15625 25.785156 29.351562 25.785156 C 29.5625 25.785156 29.722656 25.960938 29.722656 26.15625 L 29.722656 30.710938 C 29.722656 30.925781 29.546875 31.101562 29.351562 31.101562 Z M 29.351562 31.101562 " fill-opacity="1" fill-rule="nonzero"/><g fill="#373737" fill-opacity="1"><g transform="translate(22.404334, 52.847392)"><g><path d="M 0.515625 0 L 0.515625 -3.71875 L 0.953125 -3.71875 L 0.953125 -0.390625 L 2.59375 -0.390625 L 2.59375 0 Z M 0.515625 0 "/></g></g></g><g fill="#373737" fill-opacity="1"><g transform="translate(25.926541, 52.847392)"><g><path d="M 3.328125 -3.71875 L 3.328125 -1.3125 C 3.328125 -0.882812 3.195312 -0.550781 2.9375 -0.3125 C 2.6875 -0.0703125 2.335938 0.046875 1.890625 0.046875 C 1.429688 0.046875 1.078125 -0.0703125 0.828125 -0.3125 C 0.585938 -0.5625 0.46875 -0.898438 0.46875 -1.328125 L 0.46875 -3.71875 L 0.90625 -3.71875 L 0.90625 -1.296875 C 0.90625 -0.984375 0.988281 -0.742188 1.15625 -0.578125 C 1.332031 -0.410156 1.582031 -0.328125 1.90625 -0.328125 C 2.21875 -0.328125 2.457031 -0.410156 2.625 -0.578125 C 2.800781 -0.742188 2.890625 -0.984375 2.890625 -1.296875 L 2.890625 -3.71875 Z M 3.328125 -3.71875 "/></g></g></g><g fill="#373737" fill-opacity="1"><g transform="translate(30.53906, 52.847392)"><g><path d="M 2.15625 0 L 0.890625 -3.296875 L 0.875 -3.296875 C 0.894531 -3.035156 0.90625 -2.726562 0.90625 -2.375 L 0.90625 0 L 0.515625 0 L 0.515625 -3.71875 L 1.171875 -3.71875 L 2.34375 -0.65625 L 2.359375 -0.65625 L 3.5625 -3.71875 L 4.203125 -3.71875 L 4.203125 0 L 3.765625 0 L 3.765625 -2.40625 C 3.765625 -2.675781 3.773438 -2.972656 3.796875 -3.296875 L 3.78125 -3.296875 L 2.515625 0 Z M 2.15625 0 "/></g></g></g><g fill="#373737" fill-opacity="1"><g transform="translate(36.063568, 52.847392)"><g><path d="M 0.515625 0 L 0.515625 -3.71875 L 0.953125 -3.71875 L 0.953125 0 Z M 0.515625 0 "/></g></g></g><g fill="#373737" fill-opacity="1"><g transform="translate(38.332429, 52.847392)"><g><path d="M 0.390625 -0.265625 C 0.390625 -0.378906 0.414062 -0.460938 0.46875 -0.515625 C 0.519531 -0.578125 0.59375 -0.609375 0.6875 -0.609375 C 0.78125 -0.609375 0.851562 -0.578125 0.90625 -0.515625 C 0.96875 -0.460938 1 -0.378906 1 -0.265625 C 1 -0.160156 0.96875 -0.078125 0.90625 -0.015625 C 0.851562 0.046875 0.78125 0.078125 0.6875 0.078125 C 0.601562 0.078125 0.53125 0.0507812 0.46875 0 C 0.414062 -0.0625 0.390625 -0.148438 0.390625 -0.265625 Z M 0.390625 -0.265625 "/></g></g></g><g fill="#373737" fill-opacity="1"><g transform="translate(40.535056, 52.847392)"><g><path d="M 2.875 -2.640625 C 2.875 -2.265625 2.742188 -1.972656 2.484375 -1.765625 C 2.234375 -1.566406 1.867188 -1.46875 1.390625 -1.46875 L 0.953125 -1.46875 L 0.953125 0 L 0.515625 0 L 0.515625 -3.71875 L 1.484375 -3.71875 C 2.410156 -3.71875 2.875 -3.359375 2.875 -2.640625 Z M 0.953125 -1.84375 L 1.328125 -1.84375 C 1.710938 -1.84375 1.988281 -1.898438 2.15625 -2.015625 C 2.332031 -2.140625 2.421875 -2.34375 2.421875 -2.625 C 2.421875 -2.863281 2.335938 -3.039062 2.171875 -3.15625 C 2.015625 -3.28125 1.765625 -3.34375 1.421875 -3.34375 L 0.953125 -3.34375 Z M 0.953125 -1.84375 "/></g></g></g><g fill="#373737" fill-opacity="1"><g transform="translate(44.49033, 52.847392)"><g><path d="M 0.953125 -1.546875 L 0.953125 0 L 0.515625 0 L 0.515625 -3.71875 L 1.53125 -3.71875 C 1.988281 -3.71875 2.328125 -3.628906 2.546875 -3.453125 C 2.765625 -3.285156 2.875 -3.023438 2.875 -2.671875 C 2.875 -2.179688 2.625 -1.847656 2.125 -1.671875 L 3.140625 0 L 2.625 0 L 1.71875 -1.546875 Z M 0.953125 -1.921875 L 1.546875 -1.921875 C 1.847656 -1.921875 2.066406 -1.976562 2.203125 -2.09375 C 2.347656 -2.21875 2.421875 -2.40625 2.421875 -2.65625 C 2.421875 -2.894531 2.347656 -3.066406 2.203125 -3.171875 C 2.054688 -3.285156 1.828125 -3.34375 1.515625 -3.34375 L 0.953125 -3.34375 Z M 0.953125 -1.921875 "/></g></g></g><g fill="#373737" fill-opacity="1"><g transform="translate(48.529671, 52.847392)"><g><path d="M 3.75 -1.875 C 3.75 -1.269531 3.597656 -0.796875 3.296875 -0.453125 C 2.992188 -0.117188 2.570312 0.046875 2.03125 0.046875 C 1.488281 0.046875 1.066406 -0.117188 0.765625 -0.453125 C 0.460938 -0.785156 0.3125 -1.257812 0.3125 -1.875 C 0.3125 -2.476562 0.460938 -2.945312 0.765625 -3.28125 C 1.066406 -3.613281 1.492188 -3.78125 2.046875 -3.78125 C 2.578125 -3.78125 2.992188 -3.609375 3.296875 -3.265625 C 3.597656 -2.929688 3.75 -2.46875 3.75 -1.875 Z M 0.78125 -1.875 C 0.78125 -1.363281 0.882812 -0.976562 1.09375 -0.71875 C 1.3125 -0.457031 1.625 -0.328125 2.03125 -0.328125 C 2.445312 -0.328125 2.757812 -0.457031 2.96875 -0.71875 C 3.175781 -0.976562 3.28125 -1.363281 3.28125 -1.875 C 3.28125 -2.375 3.175781 -2.75 2.96875 -3 C 2.757812 -3.257812 2.453125 -3.390625 2.046875 -3.390625 C 1.628906 -3.390625 1.3125 -3.257812 1.09375 -3 C 0.882812 -2.738281 0.78125 -2.363281 0.78125 -1.875 Z M 0.78125 -1.875 "/></g></g></g><g fill="#373737" fill-opacity="1"><g transform="translate(28.169641, 62.547459)"><g><path d="M 1.765625 -0.671875 C 1.765625 -0.453125 1.679688 -0.28125 1.515625 -0.15625 C 1.359375 -0.03125 1.144531 0.03125 0.875 0.03125 C 0.570312 0.03125 0.34375 -0.00390625 0.1875 -0.078125 L 0.1875 -0.359375 C 0.289062 -0.316406 0.398438 -0.28125 0.515625 -0.25 C 0.640625 -0.226562 0.765625 -0.21875 0.890625 -0.21875 C 1.078125 -0.21875 1.21875 -0.253906 1.3125 -0.328125 C 1.414062 -0.398438 1.46875 -0.503906 1.46875 -0.640625 C 1.46875 -0.734375 1.453125 -0.804688 1.421875 -0.859375 C 1.390625 -0.910156 1.332031 -0.957031 1.25 -1 C 1.164062 -1.050781 1.039062 -1.109375 0.875 -1.171875 C 0.632812 -1.253906 0.460938 -1.351562 0.359375 -1.46875 C 0.265625 -1.582031 0.21875 -1.734375 0.21875 -1.921875 C 0.21875 -2.117188 0.289062 -2.273438 0.4375 -2.390625 C 0.582031 -2.503906 0.773438 -2.5625 1.015625 -2.5625 C 1.265625 -2.5625 1.492188 -2.515625 1.703125 -2.421875 L 1.609375 -2.15625 C 1.398438 -2.25 1.195312 -2.296875 1 -2.296875 C 0.851562 -2.296875 0.734375 -2.257812 0.640625 -2.1875 C 0.554688 -2.125 0.515625 -2.035156 0.515625 -1.921875 C 0.515625 -1.828125 0.53125 -1.753906 0.5625 -1.703125 C 0.59375 -1.648438 0.644531 -1.597656 0.71875 -1.546875 C 0.800781 -1.503906 0.921875 -1.453125 1.078125 -1.390625 C 1.335938 -1.296875 1.515625 -1.191406 1.609375 -1.078125 C 1.710938 -0.972656 1.765625 -0.835938 1.765625 -0.671875 Z M 1.765625 -0.671875 "/></g></g></g><g fill="#373737" fill-opacity="1"><g transform="translate(31.286915, 62.547459)"><g><path d="M 1.125 0 L 0.828125 0 L 0.828125 -2.265625 L 0.03125 -2.265625 L 0.03125 -2.515625 L 1.921875 -2.515625 L 1.921875 -2.265625 L 1.125 -2.265625 Z M 1.125 0 "/></g></g></g><g fill="#373737" fill-opacity="1"><g transform="translate(34.419671, 62.547459)"><g><path d="M 2.25 -2.515625 L 2.25 -0.890625 C 2.25 -0.597656 2.160156 -0.367188 1.984375 -0.203125 C 1.816406 -0.046875 1.582031 0.03125 1.28125 0.03125 C 0.96875 0.03125 0.726562 -0.0507812 0.5625 -0.21875 C 0.40625 -0.382812 0.328125 -0.609375 0.328125 -0.890625 L 0.328125 -2.515625 L 0.609375 -2.515625 L 0.609375 -0.875 C 0.609375 -0.664062 0.664062 -0.503906 0.78125 -0.390625 C 0.894531 -0.273438 1.066406 -0.21875 1.296875 -0.21875 C 1.503906 -0.21875 1.664062 -0.273438 1.78125 -0.390625 C 1.894531 -0.503906 1.953125 -0.664062 1.953125 -0.875 L 1.953125 -2.515625 Z M 2.25 -2.515625 "/></g></g></g><g fill="#373737" fill-opacity="1"><g transform="translate(38.168203, 62.547459)"><g><path d="M 2.359375 -1.28125 C 2.359375 -0.863281 2.242188 -0.546875 2.015625 -0.328125 C 1.796875 -0.109375 1.472656 0 1.046875 0 L 0.34375 0 L 0.34375 -2.515625 L 1.125 -2.515625 C 1.507812 -2.515625 1.8125 -2.40625 2.03125 -2.1875 C 2.25 -1.976562 2.359375 -1.675781 2.359375 -1.28125 Z M 2.046875 -1.28125 C 2.046875 -1.601562 1.960938 -1.847656 1.796875 -2.015625 C 1.628906 -2.179688 1.382812 -2.265625 1.0625 -2.265625 L 0.640625 -2.265625 L 0.640625 -0.25 L 1 -0.25 C 1.34375 -0.25 1.601562 -0.332031 1.78125 -0.5 C 1.957031 -0.675781 2.046875 -0.9375 2.046875 -1.28125 Z M 2.046875 -1.28125 "/></g></g></g><g fill="#373737" fill-opacity="1"><g transform="translate(41.920175, 62.547459)"><g><path d="M 0.34375 0 L 0.34375 -2.515625 L 0.640625 -2.515625 L 0.640625 0 Z M 0.34375 0 "/></g></g></g><g fill="#373737" fill-opacity="1"><g transform="translate(44.086265, 62.547459)"><g><path d="M 2.53125 -1.265625 C 2.53125 -0.859375 2.425781 -0.539062 2.21875 -0.3125 C 2.019531 -0.0820312 1.738281 0.03125 1.375 0.03125 C 1.007812 0.03125 0.722656 -0.078125 0.515625 -0.296875 C 0.316406 -0.523438 0.21875 -0.847656 0.21875 -1.265625 C 0.21875 -1.679688 0.316406 -2 0.515625 -2.21875 C 0.722656 -2.445312 1.007812 -2.5625 1.375 -2.5625 C 1.738281 -2.5625 2.019531 -2.445312 2.21875 -2.21875 C 2.425781 -1.988281 2.53125 -1.671875 2.53125 -1.265625 Z M 0.53125 -1.265625 C 0.53125 -0.921875 0.601562 -0.660156 0.75 -0.484375 C 0.894531 -0.304688 1.101562 -0.21875 1.375 -0.21875 C 1.65625 -0.21875 1.863281 -0.304688 2 -0.484375 C 2.144531 -0.660156 2.21875 -0.921875 2.21875 -1.265625 C 2.21875 -1.597656 2.144531 -1.851562 2 -2.03125 C 1.863281 -2.207031 1.65625 -2.296875 1.375 -2.296875 C 1.101562 -2.296875 0.894531 -2.207031 0.75 -2.03125 C 0.601562 -1.851562 0.53125 -1.597656 0.53125 -1.265625 Z M 0.53125 -1.265625 "/></g></g></g></svg>